<mxfile host="app.diagrams.net" modified="2023-11-24T02:49:36.458Z" agent="Mozilla/5.0 (Windows NT 10.0; Win64; x64) AppleWebKit/537.36 (KHTML, like Gecko) Chrome/119.0.0.0 Safari/537.36" version="22.1.3" etag="Jk_btmD-vOooWovUdKZu" type="github">
  <diagram name="ページ1" id="bl-ceROegCdN8sGa5Q2p">
    <mxGraphModel>
      <root>
        <mxCell id="0" />
        <mxCell id="1" parent="0" />
      </root>
    </mxGraphModel>
  </diagram>
</mxfile>
